<svg class="icon" xmlns="http://www.w3.org/2000/svg" viewBox="0 0 26.8687 28">
  <rect x="0" rx="13.4343" y="0" />
  <path d="m 8.853099,17.9297 v 1.1974 h 0.62393 0.525 l 6.7443,-7.0282 -1.149,-1.1974 -3.3721,3.5141 z m 9.66163,-7.6737 c 0.0565,-0.0588 0.1014,-0.1286 0.132,-0.2055 0.0306,-0.07684 0.0463,-0.15924 0.0463,-0.24247 0,-0.08323 -0.0157,-0.16564 -0.0463,-0.24251 -0.0306,-0.07687 -0.0755,-0.1467 -0.132,-0.20549 l -0.2892,-0.30139 c -0.0564,-0.05891 -0.1234,-0.10565 -0.1971,-0.13753 -0.0738,-0.03189 -0.1529,-0.04831 -0.2328,-0.04831 -0.0798,0 -0.1589,0.01642 -0.2327,0.04831 -0.0737,0.03188 -0.1407,0.07862 -0.1972,0.13753 l -1.1159,1.16286 1.149,1.1974 z"/>
</svg>