<svg xmlns="http://www.w3.org/2000/svg" id="Capa_1" data-name="Capa 1" version="1.1" width="321.26" height="113.26"><defs id="defs4"><style id="style2">.cls-1{fill:#272525}.cls-2{fill:#62b9c4}</style></defs><path class="cls-1" d="M103.63 62.55a1.25 1.25 0 0 0-1.1-.6h-16.9a1.15 1.15 0 0 0-1.1.6l-8.5 14.7a1.48 1.48 0 0 0 0 1.3l8.5 14.7a1.28 1.28 0 0 0 1.1.6h16.9a1.14 1.14 0 0 0 1.1-.6l8.5-14.7a1.48 1.48 0 0 0 0-1.3zm.8 15.4-5.1 8.8c-.09.1-.09.1-.2.1h-10.2a.35.35 0 0 1-.2-.1l-5.1-8.8v-.29l5.1-8.8c.1-.1.1-.1.2-.1h10.2a.35.35 0 0 1 .2.1l5.1 8.8c.12.19.12.29.02.29z" id="path6" style="fill:#272525"/><path class="cls-1" d="m320.55 65.13-4.3-2.5a1.48 1.48 0 0 0-1.3 0 1.15 1.15 0 0 0-.6 1.1v18.2l-2.8 4.8c-.1.1-.1.1-.2.1h-10.2a.35.35 0 0 1-.2-.1l-2.8-4.8V63.75a1.15 1.15 0 0 0-.6-1.1 1.48 1.48 0 0 0-1.3 0l-4.3 2.5a1.15 1.15 0 0 0-.6 1.1v17.2a1.38 1.38 0 0 0 .2.6l5.21 9.11a1.28 1.28 0 0 0 1.1.6h16.9a1.17 1.17 0 0 0 1.1-.6l5.2-9a1.46 1.46 0 0 0 .2-.61v-17.2a1.8 1.8 0 0 0-.71-1.22z" id="path8" style="fill:#272525"/><path class="cls-1" d="M184.05 61.95h-16.9a1.15 1.15 0 0 0-1.1.6l-8.5 14.71a1.46 1.46 0 0 0 0 1.29l8.5 14.71a1.15 1.15 0 0 0 1.1.6h14.1a1.15 1.15 0 0 0 1.1-.6l2.5-4.3a1.48 1.48 0 0 0 0-1.3 1.15 1.15 0 0 0-1.1-.6h-13.2a.35.35 0 0 1-.2-.1l-3-5.1c-.1-.1 0-.2 0-.3a.35.35 0 0 1 .2-.1h20.4a1.15 1.15 0 0 0 1.1-.6l3.3-5.7-7.2-12.4a1.05 1.05 0 0 0-1.1-.81zm-.1 12.4a.35.35 0 0 1-.2.1h-16.12a.35.35 0 0 1-.2-.1s-.1-.2 0-.3l3-5.1c.1-.1.1-.1.2-.1h10.2a.35.35 0 0 1 .2.1l3 5.1a.37.37 0 0 0-.08.3z" id="path10" style="fill:#272525"/><path class="cls-1" d="M241.25 62.55a1.25 1.25 0 0 0-1.1-.6h-14.1a1.12 1.12 0 0 0-1.09.6l-2.5 4.3a1.48 1.48 0 0 0 0 1.3 1.13 1.13 0 0 0 1.09.6h13.21a.39.39 0 0 1 .2.1l3 5.1c.09.1 0 .21 0 .3a.35.35 0 0 1-.2.1h-20.41a1.12 1.12 0 0 0-1.09.6l-3.3 5.71 7.09 12.39a1.17 1.17 0 0 0 1.1.61h16.9a1.15 1.15 0 0 0 1.1-.61l8.5-14.7a1.48 1.48 0 0 0 0-1.3zm-17.8 18.9a.35.35 0 0 1 .2-.1h16.1a.35.35 0 0 1 .2.1s.1.21 0 .3l-3 5.1c-.1.1-.1.1-.2.1h-10.2a.35.35 0 0 1-.2-.1l-3-5.1c0-.2 0-.3.1-.3z" id="path12" style="fill:#272525"/><path class="cls-1" d="M212.85 61.95h-4.9a1.15 1.15 0 0 0-1.1.6l-1.59 2.8c0 .1-.1.1-.21.1h-.2l-4.8-2.8a1.46 1.46 0 0 0-1.29 0 1.13 1.13 0 0 0-.6 1.1v28.2a1.15 1.15 0 0 0 .6 1.1 1.32 1.32 0 0 0 .59.21 1.28 1.28 0 0 0 .6-.21l4.3-2.5a1.15 1.15 0 0 0 .6-1.1v-10l9-15.6a1.48 1.48 0 0 0 0-1.3 1 1 0 0 0-1-.6z" id="path14" style="fill:#272525"/><path class="cls-1" d="M144.35 62.55a1.25 1.25 0 0 0-1.09-.6h-16.91a1.12 1.12 0 0 0-1.09.6l-1.5 2.6c0 .1-.1.1-.21.1h-.2l-4.5-2.6a1.48 1.48 0 0 0-1.3 0 1.14 1.14 0 0 0-.59 1.1v45.7a1.16 1.16 0 0 0 .59 1.1l4.3 2.5a1.36 1.36 0 0 0 .6.21 1.31 1.31 0 0 0 .6-.21 1.15 1.15 0 0 0 .6-1.1v-21.4l1.5 2.61a1.28 1.28 0 0 0 1.1.6h16.9a1.17 1.17 0 0 0 1.1-.6l8.5-14.71a1.46 1.46 0 0 0 0-1.29zm.9 15.4-5.1 8.8c-.1.1-.1.1-.2.1h-10.2a.35.35 0 0 1-.2-.1l-5.1-8.8v-.29l5.1-8.8c.1-.1.1-.1.2-.1h10.2a.35.35 0 0 1 .2.1l5.1 8.8c.1.19.1.29 0 .29z" id="path16" style="fill:#272525"/><path class="cls-1" d="M268.63 50.95h-2.5a.27.27 0 0 1-.3-.3v-3a1.16 1.16 0 0 0-.59-1.1l-4.3-2.5a1.48 1.48 0 0 0-1.3 0 1.15 1.15 0 0 0-.6 1.1v5.4a.27.27 0 0 1-.3.3h-12a1.15 1.15 0 0 0-1.1.6 1.48 1.48 0 0 0 0 1.3l2.5 4.3a1.26 1.26 0 0 0 1.1.61h9.5a.27.27 0 0 1 .3.3v32.9a1.15 1.15 0 0 0 .6 1.1l4.3 2.5a1.43 1.43 0 0 0 .59.2 1.38 1.38 0 0 0 .6-.2 1.15 1.15 0 0 0 .6-1.1v-35.4a.27.27 0 0 1 .3-.3 1.15 1.15 0 0 0 1.1-.6l2.5-4.3a1.48 1.48 0 0 0 0-1.3 1.18 1.18 0 0 0-1-.51z" id="path18" style="fill:#272525"/><path class="cls-1" d="M62.85 62.55a1.25 1.25 0 0 0-1.09-.6H44.85a1.12 1.12 0 0 0-1.09.6l-8.5 14.7a1.42 1.42 0 0 0 0 1.3l8.5 14.7a1.25 1.25 0 0 0 1.09.6h16.91a1.12 1.12 0 0 0 1.09-.6l8.5-14.7a1.48 1.48 0 0 0 0-1.3zm.9 15.4-5.1 8.8c-.1.1-.1.1-.2.1h-10.2a.35.35 0 0 1-.2-.1l-5.1-8.8v-.29l5.1-8.8c.1-.1.1-.1.2-.1h10.2a.35.35 0 0 1 .2.1l5.1 8.8z" id="path20" style="fill:#272525"/><path class="cls-1" d="M12.95 68.85c.1-.1.1-.1.2-.1h16a1.15 1.15 0 0 0 1.1-.6 1.48 1.48 0 0 0 0-1.3l-2.5-4.3a1.25 1.25 0 0 0-1.1-.6H9.75a1.15 1.15 0 0 0-1.1.6l-8.5 14.7a1.48 1.48 0 0 0 0 1.3l8.5 14.7a1.25 1.25 0 0 0 1.1.6h16.88a1.15 1.15 0 0 0 1.1-.6l2.5-4.3a1.46 1.46 0 0 0 0-1.29 1.16 1.16 0 0 0-1.1-.61h-16a.35.35 0 0 1-.2-.1l-5.08-8.82v-.3z" id="path22" style="fill:#272525"/><path class="cls-1" d="M282.55 69.75a1.48 1.48 0 0 0-1.3 0l-4.3 2.5a1.25 1.25 0 0 0-.6 1.1v16.9a1.15 1.15 0 0 0 .6 1.1l4.3 2.5a1 1 0 0 0 1.2 0 1.15 1.15 0 0 0 .6-1.1v-21.9a.85.85 0 0 0-.5-1.1z" id="path24" style="fill:#272525"/><path class="cls-1" d="m282.55 56.25-4.3-2.5a1.48 1.48 0 0 0-1.3 0 1.15 1.15 0 0 0-.6 1.1v10.28a1.15 1.15 0 0 0 .6 1.1 1 1 0 0 0 1.21 0l4.29-2.5a1.15 1.15 0 0 0 .6-1.1v-5.4c.2-.38-.1-.78-.5-.98z" id="path26" style="fill:#272525"/><path class="cls-2" d="M62.85 20.05a1.39 1.39 0 0 0-1.2-.7h-16.9a1.52 1.52 0 0 0-1.2.7l-8.4 14.6a1.48 1.48 0 0 0 0 1.3l8.4 14.6a1.39 1.39 0 0 0 1.2.7h16.88a1.52 1.52 0 0 0 1.2-.7l8.41-14.6a1.48 1.48 0 0 0 0-1.3zm.8 15.5-5.1 8.8c-.09.1-.2.2-.29.2h-10.1c-.1 0-.2-.1-.3-.2l-5.1-8.8a.19.19 0 0 1 0-.3l5.1-8.8c.1-.1.2-.2.3-.2h10.1c.09 0 .2.1.29.2l5.1 8.8c.1 0 .1.2-.02.3z" id="path28" style="fill:#fff"/><path class="cls-2" d="M129.75 26.45a1.48 1.48 0 0 0-1.3 0l-4.3 2.5a1.25 1.25 0 0 0-.6 1.1v16.9a1.17 1.17 0 0 0 .6 1.1l4.3 2.5a1.3 1.3 0 0 0 .6.2 1.42 1.42 0 0 0 .6-.2 1.14 1.14 0 0 0 .6-1.1v-21.8a1.15 1.15 0 0 0-.5-1.2z" id="path30" style="fill:#fff"/><path class="cls-2" d="m111.25 2.55-4.1-2.4a1.48 1.48 0 0 0-1.3 0 1.39 1.39 0 0 0-.7 1.2v21.2l-1.5-2.5a1.39 1.39 0 0 0-1.2-.7h-16.9a1.52 1.52 0 0 0-1.2.7l-8.4 14.6a1.48 1.48 0 0 0 0 1.3l8.4 14.6a1.39 1.39 0 0 0 1.2.7h16.9a1.52 1.52 0 0 0 1.2-.7l1.5-2.5c0-.1.1-.1.2-.19h.3l4.4 2.5a1.55 1.55 0 0 0 1.3 0 1.37 1.37 0 0 0 .7-1.2V3.55a2.35 2.35 0 0 0-.8-1zm-6.8 33-5.1 8.8c-.09.1-.2.2-.3.2h-10.1c-.1 0-.2-.1-.3-.2l-5.1-8.8a.2.2 0 0 1 0-.3l5.1-8.8c.1-.1.2-.2.3-.2h10.1c.1 0 .2.1.3.2l5.1 8.8c.1 0 .1.2 0 .3z" id="path32" style="fill:#fff"/><path class="cls-2" d="m129.75 12.95-4.3-2.5a1.48 1.48 0 0 0-1.3 0 1.15 1.15 0 0 0-.6 1.1v10.31a1.18 1.18 0 0 0 .6 1.1 1.42 1.42 0 0 0 .6.2 1.58 1.58 0 0 0 .6-.2l4.3-2.5a1.15 1.15 0 0 0 .6-1.1v-5.4a.94.94 0 0 0-.5-1.01z" id="path34" style="fill:#fff"/><path class="cls-2" d="M12.95 26.35c0-.1.1-.1.2-.1h16.2a1.09 1.09 0 0 0 1-.6 1.28 1.28 0 0 0 0-1.2l-2.5-4.4a1.09 1.09 0 0 0-1-.6h-17a1.1 1.1 0 0 0-1 .6l-8.5 14.7a1.27 1.27 0 0 0 0 1.2l8.5 14.7a1.1 1.1 0 0 0 1 .6h17a1.09 1.09 0 0 0 1-.6l2.5-4.4a1.28 1.28 0 0 0 0-1.2 1.09 1.09 0 0 0-1-.6h-16.2c-.1 0-.2 0-.2-.1l-5.1-8.9v-.2z" id="path36" style="fill:#fff"/></svg>